<?xml version="1.0" encoding="utf-8"?>
<!-- Generator: Adobe Illustrator 24.3.0, SVG Export Plug-In . SVG Version: 6.00 Build 0)  -->
<svg version="1.1" id="Capa_1" xmlns="http://www.w3.org/2000/svg" xmlns:xlink="http://www.w3.org/1999/xlink" x="0px" y="0px"
	 viewBox="0 0 249 63" style="enable-background:new 0 0 249 63;" xml:space="preserve">
<style type="text/css">
	.st0{fill:#6FB1C8;}
	.st1{fill:#FF8672;}
</style>
<g>
	<g>
		<g>
			<g>
				<g>
					<path class="st0" d="M76.6,14.7c-2.9,0-5,0.8-6.3,2.4c-1.3,1.6-1.9,3.8-1.9,6.6c0,1.4,0.2,2.6,0.5,3.7c0.3,1.1,0.8,2,1.4,2.8
						c0.6,0.8,1.4,1.4,2.4,1.8c1,0.4,2.1,0.7,3.3,0.7c0.7,0,1.3,0,1.8,0c0.5,0,0.9-0.1,1.3-0.2v-9.6h6.2v13.6
						c-0.7,0.3-1.9,0.6-3.6,0.9c-1.6,0.3-3.7,0.5-6.1,0.5c-2.1,0-3.9-0.3-5.6-1c-1.7-0.6-3.1-1.6-4.3-2.8c-1.2-1.2-2.1-2.7-2.8-4.5
						c-0.6-1.8-1-3.8-1-6.1c0-2.3,0.4-4.3,1.1-6.1c0.7-1.8,1.7-3.3,2.9-4.5c1.2-1.2,2.7-2.2,4.4-2.8c1.7-0.6,3.5-1,5.4-1
						c1.3,0,2.5,0.1,3.5,0.3c1,0.2,1.9,0.4,2.7,0.6c0.8,0.2,1.4,0.5,1.9,0.7c0.5,0.2,0.8,0.4,1.1,0.6l-1.8,5
						c-0.8-0.4-1.8-0.8-2.9-1.2C79.1,14.8,77.9,14.7,76.6,14.7"/>
				</g>
				<g>
					<path class="st0" d="M146.7,27c0,1.7-0.2,3.2-0.7,4.5c-0.5,1.4-1.2,2.5-2.1,3.5c-0.9,1-2.1,1.7-3.4,2.2
						c-1.4,0.5-2.9,0.8-4.6,0.8c-0.7,0-1.5,0-2.2-0.1c-0.8-0.1-1.5-0.2-2.3-0.3c-0.8-0.1-1.5-0.2-2.2-0.4c-0.7-0.1-1.3-0.3-1.8-0.5
						V10.3l5.9-1V17c0.7-0.3,1.3-0.5,2.1-0.7c0.7-0.2,1.5-0.2,2.3-0.2c1.5,0,2.8,0.3,3.9,0.8c1.1,0.5,2.1,1.2,2.9,2.2
						c0.8,1,1.4,2.1,1.7,3.4C146.5,23.8,146.7,25.3,146.7,27 M140.7,26.8c0-3.8-1.4-5.7-4.2-5.7c-0.6,0-1.2,0.1-1.8,0.2
						c-0.6,0.2-1.1,0.4-1.4,0.6v10.8c0.3,0.1,0.7,0.1,1.1,0.1c0.5,0,0.9,0.1,1.5,0.1c1.6,0,2.8-0.6,3.7-1.7
						C140.3,30.1,140.7,28.6,140.7,26.8"/>
				</g>
				<g>
					<path class="st0" d="M158.8,16c1.7,0,3.2,0.2,4.4,0.6c1.2,0.4,2.1,1,2.8,1.7c0.7,0.7,1.2,1.6,1.5,2.7c0.3,1.1,0.4,2.2,0.4,3.5
						v12.3c-0.8,0.2-2,0.4-3.5,0.7c-1.5,0.2-3.3,0.4-5.5,0.4c-1.3,0-2.6-0.1-3.7-0.4c-1.1-0.2-2-0.6-2.8-1.2
						c-0.8-0.5-1.4-1.2-1.8-2.1c-0.4-0.9-0.6-1.9-0.6-3.2c0-1.2,0.2-2.2,0.7-3.1c0.5-0.8,1.1-1.5,2-2c0.8-0.5,1.8-0.9,2.8-1.1
						c1.1-0.2,2.2-0.3,3.3-0.3c0.8,0,1.4,0,2,0.1c0.6,0.1,1.1,0.2,1.4,0.3v-0.6c0-1-0.3-1.8-0.9-2.4c-0.6-0.6-1.7-0.9-3.2-0.9
						c-1,0-2,0.1-3,0.2c-1,0.1-1.8,0.4-2.5,0.6l-0.8-4.8c0.3-0.1,0.8-0.2,1.3-0.3c0.5-0.1,1.1-0.2,1.7-0.3c0.6-0.1,1.2-0.2,1.9-0.2
						C157.4,16,158.1,16,158.8,16 M159.3,33.3c0.6,0,1.1,0,1.7,0c0.5,0,1-0.1,1.3-0.1v-4.5c-0.2-0.1-0.6-0.1-1.1-0.2
						c-0.5-0.1-0.9-0.1-1.3-0.1c-0.6,0-1.1,0-1.6,0.1c-0.5,0.1-0.9,0.2-1.3,0.4c-0.4,0.2-0.7,0.4-0.9,0.8c-0.2,0.3-0.3,0.7-0.3,1.2
						c0,0.9,0.3,1.6,0.9,1.9C157.3,33.1,158.2,33.3,159.3,33.3"/>
				</g>
				<g>
					<path class="st0" d="M181.6,37.8c-1.7,0-3.1-0.2-4.2-0.6c-1.1-0.3-1.9-0.8-2.5-1.4c-0.6-0.6-1-1.4-1.3-2.3
						c-0.2-0.9-0.3-1.9-0.3-3V10.3l5.9-1v20.1c0,0.5,0,1,0.1,1.4c0.1,0.4,0.2,0.8,0.5,1.1c0.2,0.3,0.5,0.5,1,0.7
						c0.4,0.2,1,0.3,1.7,0.4L181.6,37.8z"/>
				</g>
				<g>
					<path class="st0" d="M198.4,21.8c-0.5-0.1-1.1-0.3-1.9-0.4c-0.7-0.1-1.5-0.2-2.3-0.2c-0.4,0-0.8,0-1.3,0.1
						c-0.5,0.1-0.9,0.1-1.2,0.2v16h-5.9V17.6c1.1-0.4,2.3-0.7,3.7-1.1c1.4-0.3,3-0.5,4.8-0.5c0.3,0,0.7,0,1.2,0.1
						c0.4,0,0.9,0.1,1.3,0.2c0.5,0.1,0.9,0.1,1.4,0.2c0.4,0.1,0.8,0.2,1.2,0.3L198.4,21.8z"/>
				</g>
				<g>
					<path class="st0" d="M209,10.5c0,1.1-0.4,1.9-1.1,2.6c-0.7,0.6-1.5,0.9-2.5,0.9c-1,0-1.8-0.3-2.5-0.9c-0.7-0.6-1.1-1.5-1.1-2.6
						c0-1.1,0.3-1.9,1.1-2.6c0.7-0.6,1.5-0.9,2.5-0.9c1,0,1.8,0.3,2.5,0.9C208.7,8.6,209,9.4,209,10.5 M208.5,37.4h-5.9V16.5h5.9
						V37.4z"/>
				</g>
				<g>
					<path class="st0" d="M220,33.2c1.1,0,1.9-0.1,2.3-0.3c0.5-0.2,0.7-0.6,0.7-1.2c0-0.5-0.3-0.9-0.9-1.2c-0.6-0.4-1.5-0.8-2.7-1.2
						c-0.9-0.3-1.8-0.7-2.5-1.1c-0.8-0.4-1.4-0.8-1.9-1.3c-0.5-0.5-0.9-1.1-1.2-1.8c-0.3-0.7-0.4-1.6-0.4-2.6c0-2,0.7-3.5,2.2-4.6
						c1.5-1.1,3.5-1.7,6-1.7c1.3,0,2.5,0.1,3.7,0.3c1.2,0.2,2.1,0.5,2.8,0.7l-1,4.6c-0.7-0.2-1.4-0.5-2.2-0.6
						c-0.8-0.2-1.7-0.3-2.7-0.3c-1.9,0-2.8,0.5-2.8,1.5c0,0.2,0,0.5,0.1,0.6c0.1,0.2,0.2,0.4,0.5,0.5c0.2,0.2,0.6,0.4,1,0.6
						c0.4,0.2,0.9,0.4,1.6,0.7c1.3,0.5,2.4,1,3.2,1.4c0.8,0.5,1.5,1,2,1.5c0.5,0.5,0.8,1.1,1,1.8c0.2,0.7,0.3,1.4,0.3,2.3
						c0,2.1-0.8,3.6-2.3,4.7c-1.5,1.1-3.7,1.6-6.6,1.6c-1.9,0-3.4-0.2-4.6-0.5c-1.2-0.3-2.1-0.6-2.6-0.8l1-4.8c1,0.4,2,0.7,3.1,0.9
						C217.9,33.1,219,33.2,220,33.2"/>
				</g>
				<g>
					<path class="st0" d="M232.3,27c0-1.5,0.2-2.9,0.7-4.3c0.5-1.3,1.2-2.5,2.1-3.5c0.9-1,2.1-1.8,3.4-2.4c1.3-0.6,2.8-0.9,4.5-0.9
						c1.1,0,2.1,0.1,3.1,0.3c0.9,0.2,1.8,0.5,2.7,0.9l-1.2,4.7c-0.6-0.2-1.2-0.4-1.8-0.6c-0.7-0.2-1.4-0.2-2.2-0.2
						c-1.7,0-3.1,0.5-3.9,1.6c-0.9,1.1-1.3,2.5-1.3,4.3c0,1.9,0.4,3.3,1.2,4.4c0.8,1,2.2,1.5,4.2,1.5c0.7,0,1.5-0.1,2.3-0.2
						c0.8-0.1,1.6-0.3,2.3-0.6l0.8,4.8c-0.7,0.3-1.5,0.5-2.6,0.8c-1,0.2-2.2,0.3-3.4,0.3c-1.9,0-3.5-0.3-4.9-0.9
						c-1.4-0.6-2.5-1.3-3.4-2.3c-0.9-1-1.5-2.1-1.9-3.5C232.5,30,232.3,28.5,232.3,27"/>
				</g>
				<g>
					<path class="st0" d="M122.8,27c0,1.6-0.2,3.1-0.7,4.5c-0.5,1.4-1.2,2.5-2.1,3.5c-0.9,1-2,1.7-3.2,2.2c-1.3,0.5-2.7,0.8-4.2,0.8
						c-1.5,0-2.9-0.3-4.2-0.8c-1.3-0.5-2.3-1.3-3.2-2.2c-0.9-1-1.6-2.1-2.1-3.5c-0.5-1.4-0.8-2.9-0.8-4.5c0-1.6,0.3-3.1,0.8-4.5
						c0.5-1.3,1.2-2.5,2.1-3.5c0.9-1,2-1.7,3.3-2.2c1.3-0.5,2.6-0.8,4.1-0.8c1.5,0,2.9,0.3,4.1,0.8c1.3,0.5,2.3,1.3,3.2,2.2
						c0.9,1,1.6,2.1,2.1,3.5C122.5,23.8,122.8,25.3,122.8,27 M116.7,27c0-1.8-0.4-3.3-1.1-4.3c-0.7-1-1.8-1.6-3.1-1.6
						c-1.4,0-2.4,0.5-3.1,1.6c-0.7,1-1.1,2.5-1.1,4.3c0,1.8,0.4,3.3,1.1,4.3c0.7,1.1,1.8,1.6,3.1,1.6c1.4,0,2.4-0.5,3.1-1.6
						C116.4,30.2,116.7,28.8,116.7,27"/>
				</g>
				<g>
					<path class="st0" d="M99,37.8c-1.7,0-3.1-0.2-4.2-0.6c-1.1-0.3-1.9-0.8-2.5-1.4c-0.6-0.6-1-1.4-1.3-2.3c-0.2-0.9-0.3-1.9-0.3-3
						V10.2l5.9-1v20.1c0,0.5,0,1,0.1,1.4c0.1,0.4,0.2,0.8,0.5,1.1c0.2,0.3,0.6,0.5,1,0.7c0.4,0.2,1,0.3,1.7,0.4L99,37.8z"/>
				</g>
			</g>
		</g>
	</g>
	<g>
		<g>
			<path class="st1" d="M23.7,7.1c1.9,0.1,5.9,0.2,9.1,1.4c0-2.4-2.2-3.9-3.6-4.5c-3.4-1.6-7.5-1.9-10.7-1.9C13.9,2,8.9,2.6,3.8,3.7
				C3.1,3.9,2.4,4,1.7,4.2v5.3C9.3,7.6,16.7,6.8,23.7,7.1z"/>
		</g>
		<g>
			<path class="st1" d="M28.4,15.3c1.5-1.2,2.6-2.4,3.3-3.5c-1.6-0.8-3.5-1.2-5.2-1.4C23.5,9.8,20.1,9.7,16,10
				c-4.8,0.3-9.6,1-14.2,2.1v15.7c1.7-0.5,3.4-1.1,5.3-1.7C14.1,23.7,22.2,20.5,28.4,15.3z"/>
		</g>
		<g>
			<path class="st1" d="M27.8,0c2.6,0.6,5.8,1.6,7.5,4.1c1.2,1.8,1.4,3.8,0.6,5.9c1.2,1,2,2.1,2.2,3.5c0.5,2.9-1.6,5.7-3.2,7.5
				c-3.6,4.1-8.3,7.1-12.7,9.8c-0.7,0.4-1.3,0.5-1.8,0.3c-0.3-0.2-0.5-0.4-0.5-0.8c0-0.5,0.4-1.1,1-1.5c1.9-1.2,4.4-2.8,6.9-4.7
				c1.7-1.3,6.7-5.2,6.9-8.5c0-0.9-0.2-1.6-0.8-2.3c-2.1,2.6-5.1,4.8-7.2,6.2C20,23.9,12.1,27.3,1.7,30.4V45h45V0H27.8z"/>
		</g>
	</g>
	<g>
		<path class="st0" d="M69.6,59.5c-0.7-0.4-1.2-1-1.5-1.7c-0.4-0.7-0.5-1.6-0.5-2.6c0-1,0.2-1.9,0.5-2.6c0.4-0.7,0.9-1.3,1.5-1.7
			c0.7-0.4,1.4-0.6,2.3-0.6c0.7,0,1.3,0.1,1.8,0.3c0.5,0.2,1,0.5,1.4,0.9l-0.4,0.8c-0.5-0.4-0.9-0.7-1.3-0.8
			c-0.4-0.2-0.9-0.3-1.5-0.3c-1,0-1.8,0.3-2.4,1C69,53,68.7,54,68.7,55.2c0,1.2,0.3,2.2,0.9,2.9c0.6,0.7,1.4,1,2.4,1
			c0.5,0,1-0.1,1.5-0.3c0.4-0.2,0.9-0.4,1.3-0.8l0.4,0.8c-0.4,0.4-0.9,0.7-1.4,0.9c-0.5,0.2-1.1,0.3-1.8,0.3
			C71.1,60,70.3,59.9,69.6,59.5z"/>
		<path class="st0" d="M77.9,59.6c-0.5-0.3-0.8-0.7-1.1-1.2c-0.3-0.5-0.4-1.1-0.4-1.8s0.1-1.3,0.4-1.8c0.3-0.5,0.6-0.9,1.1-1.2
			c0.5-0.3,1-0.4,1.6-0.4c0.6,0,1.2,0.1,1.6,0.4c0.5,0.3,0.8,0.7,1.1,1.2s0.4,1.1,0.4,1.8s-0.1,1.3-0.4,1.8
			c-0.3,0.5-0.6,0.9-1.1,1.2c-0.5,0.3-1,0.4-1.6,0.4C78.9,60,78.4,59.9,77.9,59.6z M81,58.5c0.3-0.4,0.5-1,0.5-1.9
			c0-0.8-0.2-1.4-0.5-1.8c-0.3-0.4-0.8-0.7-1.5-0.7c-0.6,0-1.1,0.2-1.5,0.7c-0.3,0.4-0.5,1.1-0.5,1.8c0,0.8,0.2,1.4,0.5,1.9
			c0.3,0.4,0.8,0.6,1.5,0.6C80.2,59.1,80.7,58.9,81,58.5z"/>
		<path class="st0" d="M90,55.8v4.1h-1.1v-4c0-0.6-0.1-1.1-0.4-1.3c-0.2-0.3-0.6-0.4-1.1-0.4c-0.6,0-1.1,0.2-1.4,0.6
			s-0.5,0.9-0.5,1.5v3.8h-1.1v-6.5h1.1v1.1c0.2-0.4,0.5-0.7,0.9-0.9c0.4-0.2,0.8-0.3,1.3-0.3C89.2,53.2,90,54.1,90,55.8z"/>
		<path class="st0" d="M97.4,56.8h-4.8c0,0.8,0.2,1.3,0.6,1.7s0.9,0.6,1.6,0.6c0.8,0,1.5-0.3,2.1-0.8l0.4,0.8
			c-0.3,0.3-0.7,0.5-1.1,0.6C95.8,60,95.3,60,94.8,60c-1,0-1.8-0.3-2.4-0.9c-0.6-0.6-0.9-1.4-0.9-2.5c0-0.7,0.1-1.3,0.4-1.8
			c0.3-0.5,0.6-0.9,1.1-1.2c0.5-0.3,1-0.4,1.6-0.4c0.9,0,1.6,0.3,2,0.9c0.5,0.6,0.7,1.4,0.7,2.3V56.8z M94.3,52.5l-1.8-2.7h1.3
			l1.3,2.7H94.3z M93.3,54.6c-0.3,0.4-0.5,0.9-0.6,1.5h3.8c0-0.7-0.2-1.2-0.5-1.5c-0.3-0.4-0.8-0.5-1.3-0.5
			C94.1,54.1,93.6,54.3,93.3,54.6z"/>
		<path class="st0" d="M98.9,50.6h1.3v1.2h-1.3V50.6z M99,59.9v-6.5h1.1v6.5H99z"/>
		<path class="st0" d="M105.3,56.6l2.7,3.4h-1.3l-2-2.6l-2,2.6h-1.3l2.7-3.4l-2.6-3.2h1.3l1.9,2.4l1.9-2.4h1.3L105.3,56.6z"/>
		<path class="st0" d="M114.6,56.8h-4.8c0,0.8,0.2,1.3,0.6,1.7s0.9,0.6,1.6,0.6c0.8,0,1.5-0.3,2.1-0.8l0.4,0.8
			c-0.3,0.3-0.7,0.5-1.1,0.6S112.5,60,112,60c-1,0-1.8-0.3-2.4-0.9c-0.6-0.6-0.9-1.4-0.9-2.5c0-0.7,0.1-1.3,0.4-1.8
			c0.3-0.5,0.6-0.9,1.1-1.2c0.5-0.3,1-0.4,1.6-0.4c0.9,0,1.6,0.3,2,0.9c0.5,0.6,0.7,1.4,0.7,2.3V56.8z M110.5,54.6
			c-0.3,0.4-0.5,0.9-0.6,1.5h3.8c0-0.7-0.2-1.2-0.5-1.5c-0.3-0.4-0.8-0.5-1.3-0.5C111.3,54.1,110.8,54.3,110.5,54.6z"/>
		<path class="st0" d="M119.9,54.2l-0.7,0.1c-0.7,0.1-1.2,0.3-1.5,0.6c-0.3,0.4-0.5,0.8-0.5,1.3v3.7h-1.1v-6.5h1.1v1.1
			c0.4-0.8,1.1-1.2,2.2-1.3l0.4,0L119.9,54.2z"/>
		<path class="st0" d="M122.2,58.6v1c0,0.4-0.1,0.7-0.2,1c-0.1,0.3-0.3,0.6-0.6,0.9l-0.5-0.4c0.3-0.4,0.5-0.8,0.6-1.1h-0.6v-1.4
			H122.2z"/>
		<path class="st0" d="M132,53.9c0.4,0.4,0.6,1.1,0.6,1.9v4.1h-1.1v-1.1c-0.2,0.4-0.4,0.7-0.8,0.9c-0.3,0.2-0.8,0.3-1.2,0.3
			c-0.4,0-0.8-0.1-1.2-0.3c-0.4-0.2-0.6-0.4-0.8-0.7c-0.2-0.3-0.3-0.6-0.3-1c0-0.5,0.1-0.9,0.4-1.1c0.3-0.3,0.7-0.5,1.2-0.6
			c0.6-0.1,1.4-0.2,2.4-0.2h0.3v-0.4c0-0.5-0.1-0.9-0.3-1.2c-0.2-0.2-0.6-0.4-1.1-0.4c-0.8,0-1.5,0.2-2.2,0.7l-0.4-0.8
			c0.3-0.2,0.8-0.4,1.2-0.6c0.5-0.1,0.9-0.2,1.4-0.2C131,53.2,131.6,53.4,132,53.9z M131,58.6c0.3-0.4,0.5-0.8,0.5-1.4v-0.4h-0.2
			c-0.8,0-1.4,0-1.8,0.1c-0.4,0.1-0.7,0.2-0.9,0.3c-0.2,0.2-0.3,0.4-0.3,0.7c0,0.3,0.1,0.6,0.4,0.9c0.3,0.2,0.6,0.3,1,0.3
			C130.3,59.2,130.7,59,131,58.6z"/>
		<path class="st0" d="M134.2,59.2l0.4-0.8c0.3,0.3,0.7,0.5,1.1,0.6c0.4,0.1,0.8,0.2,1.2,0.2c0.5,0,0.9-0.1,1.1-0.2
			c0.3-0.2,0.4-0.4,0.4-0.7c0-0.3-0.1-0.5-0.3-0.6c-0.2-0.2-0.5-0.3-0.8-0.4l-1.1-0.3c-0.6-0.1-1-0.3-1.3-0.6
			c-0.3-0.3-0.4-0.7-0.4-1.1c0-0.6,0.2-1.1,0.7-1.4c0.5-0.4,1.1-0.5,1.8-0.5c0.5,0,0.9,0.1,1.3,0.2c0.4,0.1,0.8,0.4,1,0.6l-0.4,0.8
			c-0.6-0.5-1.3-0.8-2-0.8c-0.5,0-0.8,0.1-1.1,0.3c-0.3,0.2-0.4,0.4-0.4,0.7c0,0.3,0.1,0.5,0.2,0.6c0.2,0.2,0.4,0.3,0.8,0.4l1.1,0.3
			c0.6,0.1,1.1,0.4,1.4,0.7c0.3,0.3,0.4,0.7,0.4,1.1c0,0.6-0.2,1-0.7,1.4c-0.5,0.3-1.1,0.5-1.9,0.5C135.7,60,134.9,59.8,134.2,59.2z
			"/>
		<path class="st0" d="M140.7,59.2l0.4-0.8c0.3,0.3,0.7,0.5,1.1,0.6c0.4,0.1,0.8,0.2,1.2,0.2c0.5,0,0.9-0.1,1.1-0.2
			c0.3-0.2,0.4-0.4,0.4-0.7c0-0.3-0.1-0.5-0.3-0.6c-0.2-0.2-0.5-0.3-0.8-0.4l-1.1-0.3c-0.6-0.1-1-0.3-1.3-0.6
			c-0.3-0.3-0.4-0.7-0.4-1.1c0-0.6,0.2-1.1,0.7-1.4c0.5-0.4,1.1-0.5,1.8-0.5c0.5,0,0.9,0.1,1.3,0.2c0.4,0.1,0.8,0.4,1,0.6l-0.4,0.8
			c-0.6-0.5-1.3-0.8-2-0.8c-0.5,0-0.8,0.1-1.1,0.3c-0.3,0.2-0.4,0.4-0.4,0.7c0,0.3,0.1,0.5,0.2,0.6c0.2,0.2,0.4,0.3,0.8,0.4l1.1,0.3
			c0.6,0.1,1.1,0.4,1.4,0.7c0.3,0.3,0.4,0.7,0.4,1.1c0,0.6-0.2,1-0.7,1.4c-0.5,0.3-1.1,0.5-1.9,0.5C142.2,60,141.3,59.8,140.7,59.2z
			"/>
		<path class="st0" d="M153,56.8h-4.8c0,0.8,0.2,1.3,0.6,1.7s0.9,0.6,1.6,0.6c0.8,0,1.5-0.3,2.1-0.8l0.4,0.8
			c-0.3,0.3-0.7,0.5-1.1,0.6s-0.9,0.2-1.4,0.2c-1,0-1.8-0.3-2.4-0.9c-0.6-0.6-0.9-1.4-0.9-2.5c0-0.7,0.1-1.3,0.4-1.8
			c0.3-0.5,0.6-0.9,1.1-1.2c0.5-0.3,1-0.4,1.6-0.4c0.9,0,1.6,0.3,2,0.9c0.5,0.6,0.7,1.4,0.7,2.3V56.8z M148.9,54.6
			c-0.3,0.4-0.5,0.9-0.6,1.5h3.8c0-0.7-0.2-1.2-0.5-1.5c-0.3-0.4-0.8-0.5-1.3-0.5C149.7,54.1,149.2,54.3,148.9,54.6z"/>
		<path class="st0" d="M160.5,53.4v6.1c0,1-0.3,1.7-0.8,2.2s-1.2,0.7-2.2,0.7c-1.1,0-2.1-0.3-2.9-0.9l0.4-0.8
			c0.4,0.3,0.9,0.5,1.2,0.6c0.4,0.1,0.8,0.2,1.3,0.2c0.6,0,1.1-0.2,1.4-0.5c0.3-0.3,0.5-0.8,0.5-1.5v-1.2c-0.2,0.4-0.5,0.7-0.9,1
			c-0.4,0.2-0.8,0.3-1.4,0.3c-0.6,0-1.1-0.1-1.5-0.4c-0.4-0.3-0.8-0.6-1-1.1s-0.4-1.1-0.4-1.7s0.1-1.2,0.4-1.7s0.6-0.9,1-1.1
			c0.4-0.3,1-0.4,1.5-0.4c0.5,0,1,0.1,1.4,0.3c0.4,0.2,0.7,0.5,0.9,1v-1.1H160.5z M158.9,58.2c0.4-0.4,0.5-1,0.5-1.7
			c0-0.7-0.2-1.3-0.5-1.7c-0.4-0.4-0.8-0.6-1.5-0.6c-0.6,0-1.1,0.2-1.5,0.6c-0.4,0.4-0.5,1-0.5,1.7c0,0.7,0.2,1.3,0.5,1.7
			c0.4,0.4,0.9,0.6,1.5,0.6C158,58.8,158.5,58.6,158.9,58.2z"/>
		<path class="st0" d="M168,53.4v6.5h-1.1v-1.1c-0.2,0.4-0.5,0.7-0.9,0.9c-0.4,0.2-0.8,0.3-1.3,0.3c-0.8,0-1.4-0.2-1.8-0.7
			c-0.4-0.4-0.6-1.1-0.6-1.9v-4.1h1.1v4c0,0.6,0.1,1,0.3,1.3c0.2,0.3,0.6,0.4,1.1,0.4c0.6,0,1-0.2,1.4-0.6c0.3-0.4,0.5-0.9,0.5-1.5
			v-3.7H168z"/>
		<path class="st0" d="M173.8,54.2l-0.7,0.1c-0.7,0.1-1.2,0.3-1.5,0.6c-0.3,0.4-0.5,0.8-0.5,1.3v3.7H170v-6.5h1.1v1.1
			c0.4-0.8,1.1-1.2,2.2-1.3l0.4,0L173.8,54.2z"/>
		<path class="st0" d="M179.3,53.9c0.4,0.4,0.6,1.1,0.6,1.9v4.1h-1.1v-1.1c-0.2,0.4-0.4,0.7-0.8,0.9c-0.3,0.2-0.8,0.3-1.2,0.3
			c-0.4,0-0.8-0.1-1.2-0.3c-0.4-0.2-0.6-0.4-0.8-0.7c-0.2-0.3-0.3-0.6-0.3-1c0-0.5,0.1-0.9,0.4-1.1c0.3-0.3,0.7-0.5,1.2-0.6
			c0.6-0.1,1.4-0.2,2.4-0.2h0.3v-0.4c0-0.5-0.1-0.9-0.3-1.2c-0.2-0.2-0.6-0.4-1.1-0.4c-0.8,0-1.5,0.2-2.2,0.7l-0.4-0.8
			c0.3-0.2,0.8-0.4,1.2-0.6c0.5-0.1,0.9-0.2,1.4-0.2C178.3,53.2,178.9,53.4,179.3,53.9z M178.3,58.6c0.3-0.4,0.5-0.8,0.5-1.4v-0.4
			h-0.2c-0.8,0-1.4,0-1.8,0.1c-0.4,0.1-0.7,0.2-0.9,0.3c-0.2,0.2-0.3,0.4-0.3,0.7c0,0.3,0.1,0.6,0.4,0.9c0.3,0.2,0.6,0.3,1,0.3
			C177.6,59.2,178,59,178.3,58.6z"/>
		<path class="st0" d="M185.6,54.2l-0.7,0.1c-0.7,0.1-1.2,0.3-1.5,0.6c-0.3,0.4-0.5,0.8-0.5,1.3v3.7h-1.1v-6.5h1.1v1.1
			c0.4-0.8,1.1-1.2,2.2-1.3l0.4,0L185.6,54.2z"/>
		<path class="st0" d="M187.9,58.6v1c0,0.4-0.1,0.7-0.2,1c-0.1,0.3-0.3,0.6-0.6,0.9l-0.5-0.4c0.3-0.4,0.5-0.8,0.6-1.1h-0.6v-1.4
			H187.9z"/>
		<path class="st0" d="M198,53.7c0.4,0.3,0.8,0.7,1,1.2c0.2,0.5,0.4,1.1,0.4,1.8c0,0.7-0.1,1.3-0.4,1.8c-0.2,0.5-0.6,0.9-1,1.2
			c-0.4,0.3-0.9,0.4-1.5,0.4c-0.5,0-1-0.1-1.3-0.3c-0.4-0.2-0.7-0.5-0.9-1v3.6h-1.1v-9h1.1v1.1c0.2-0.4,0.5-0.7,0.9-1
			c0.4-0.2,0.8-0.3,1.3-0.3C197.1,53.2,197.6,53.4,198,53.7z M197.8,58.5c0.3-0.4,0.5-1,0.5-1.8c0-0.8-0.2-1.4-0.5-1.8
			c-0.3-0.4-0.8-0.7-1.5-0.7c-0.6,0-1.1,0.2-1.5,0.6s-0.5,1-0.5,1.8s0.2,1.4,0.5,1.8c0.3,0.4,0.8,0.7,1.5,0.7
			C196.9,59.1,197.4,58.9,197.8,58.5z"/>
		<path class="st0" d="M204.7,54.2l-0.7,0.1c-0.7,0.1-1.2,0.3-1.5,0.6c-0.3,0.4-0.5,0.8-0.5,1.3v3.7H201v-6.5h1.1v1.1
			c0.4-0.8,1.1-1.2,2.2-1.3l0.4,0L204.7,54.2z"/>
		<path class="st0" d="M211.3,56.8h-4.8c0,0.8,0.2,1.3,0.6,1.7s0.9,0.6,1.6,0.6c0.8,0,1.5-0.3,2.1-0.8l0.4,0.8
			c-0.3,0.3-0.7,0.5-1.1,0.6c-0.4,0.2-0.9,0.2-1.4,0.2c-1,0-1.8-0.3-2.4-0.9c-0.6-0.6-0.9-1.4-0.9-2.5c0-0.7,0.1-1.3,0.4-1.8
			c0.3-0.5,0.6-0.9,1.1-1.2c0.5-0.3,1-0.4,1.6-0.4c0.9,0,1.6,0.3,2,0.9c0.5,0.6,0.7,1.4,0.7,2.3V56.8z M207.1,54.6
			c-0.3,0.4-0.5,0.9-0.6,1.5h3.8c0-0.7-0.2-1.2-0.5-1.5c-0.3-0.4-0.8-0.5-1.3-0.5C207.9,54.1,207.5,54.3,207.1,54.6z"/>
		<path class="st0" d="M217.6,53.4h1.1l-2.8,6.5h-1l-2.8-6.5h1.2l2.2,5.4L217.6,53.4z"/>
		<path class="st0" d="M225.3,56.8h-4.8c0,0.8,0.2,1.3,0.6,1.7s0.9,0.6,1.6,0.6c0.8,0,1.5-0.3,2.1-0.8l0.4,0.8
			c-0.3,0.3-0.7,0.5-1.1,0.6c-0.4,0.2-0.9,0.2-1.4,0.2c-1,0-1.8-0.3-2.4-0.9c-0.6-0.6-0.9-1.4-0.9-2.5c0-0.7,0.1-1.3,0.4-1.8
			c0.3-0.5,0.6-0.9,1.1-1.2c0.5-0.3,1-0.4,1.6-0.4c0.9,0,1.6,0.3,2,0.9c0.5,0.6,0.7,1.4,0.7,2.3V56.8z M221.1,54.6
			c-0.3,0.4-0.5,0.9-0.6,1.5h3.8c0-0.7-0.2-1.2-0.5-1.5c-0.3-0.4-0.8-0.5-1.3-0.5C221.9,54.1,221.5,54.3,221.1,54.6z"/>
		<path class="st0" d="M232.5,55.8v4.1h-1.1v-4c0-0.6-0.1-1.1-0.4-1.3c-0.2-0.3-0.6-0.4-1.1-0.4c-0.6,0-1.1,0.2-1.4,0.6
			c-0.4,0.4-0.5,0.9-0.5,1.5v3.8h-1.1v-6.5h1.1v1.1c0.2-0.4,0.5-0.7,0.9-0.9c0.4-0.2,0.8-0.3,1.3-0.3
			C231.7,53.2,232.5,54.1,232.5,55.8z"/>
		<path class="st0" d="M234.4,50.6h1.3v1.2h-1.3V50.6z M234.5,59.9v-6.5h1.1v6.5H234.5z"/>
		<path class="st0" d="M241.3,54.2l-0.7,0.1c-0.7,0.1-1.2,0.3-1.5,0.6c-0.3,0.4-0.5,0.8-0.5,1.3v3.7h-1.1v-6.5h1.1v1.1
			c0.4-0.8,1.1-1.2,2.2-1.3l0.4,0L241.3,54.2z"/>
		<path class="st0" d="M242.2,58.6h1.4v1.4h-1.4V58.6z"/>
	</g>
</g>
</svg>
