<?xml version="1.0" encoding="UTF-8" standalone="no"?>
<!DOCTYPE svg PUBLIC "-//W3C//DTD SVG 1.1//EN" "http://www.w3.org/Graphics/SVG/1.1/DTD/svg11.dtd">
<svg width="100%" height="100%" viewBox="0 0 224 224" version="1.1" xmlns="http://www.w3.org/2000/svg" xmlns:xlink="http://www.w3.org/1999/xlink" xml:space="preserve" xmlns:serif="http://www.serif.com/" style="fill-rule:evenodd;clip-rule:evenodd;stroke-linejoin:round;stroke-miterlimit:2;">
    <g transform="matrix(1,0,0,1,-14.921,-14.2024)">
        <g transform="matrix(1,0,0,1,52,-54)">
            <g transform="matrix(1,0,0,1,-57.3478,54.0218)">
                <rect x="20.269" y="14.181" width="223.71" height="223.71" style="fill:rgb(132,201,229);"/>
            </g>
            <g transform="matrix(2.99966,0,0,2.99966,13.6204,118.228)">
                <path d="M19.911,6.64C21.677,6.712 25.257,6.857 28.2,7.867C28.2,5.658 26.211,4.373 24.97,3.784C21.884,2.317 18.148,2.103 15.239,2.081C11.052,2.069 6.541,2.556 1.885,3.59C1.257,3.729 0.628,3.879 0,4.037L0,8.833C6.871,7.131 13.551,6.384 19.911,6.64Z" style="fill:rgb(244,132,114);fill-rule:nonzero;"/>
                <path d="M24.196,14.092C25.542,12.966 26.524,11.909 27.184,10.875C25.715,10.151 24.001,9.815 22.497,9.579C19.705,9.147 16.655,9.049 12.9,9.274C8.508,9.538 4.192,10.181 0,11.176L0,25.415C1.539,24.954 3.124,24.451 4.8,23.878C11.243,21.67 18.587,18.781 24.196,14.092Z" style="fill:rgb(244,132,114);fill-rule:nonzero;"/>
                <path d="M23.626,0.224C25.993,0.73 28.905,1.686 30.459,3.912C31.578,5.517 31.749,7.325 30.967,9.291C32.087,10.153 32.763,11.22 32.979,12.465C33.434,15.096 31.522,17.605 30.043,19.263C26.762,22.941 22.554,25.675 18.526,28.159C17.927,28.528 17.348,28.613 16.937,28.392C16.666,28.245 16.507,27.986 16.498,27.678C16.484,27.208 16.82,26.726 17.419,26.358C19.165,25.28 21.451,23.826 23.635,22.14C25.137,20.981 29.707,17.453 29.871,14.411C29.914,13.626 29.668,12.933 29.123,12.302C27.211,14.626 24.538,16.616 22.591,17.899C16.607,21.841 9.401,24.979 0,27.735L0,41L40.775,41L40.775,0.224L23.626,0.224Z" style="fill:rgb(244,132,114);fill-rule:nonzero;"/>
            </g>
        </g>
    </g>
</svg>
