<?xml version="1.0" encoding="UTF-8" standalone="no"?>
<!DOCTYPE svg PUBLIC "-//W3C//DTD SVG 1.1//EN" "http://www.w3.org/Graphics/SVG/1.1/DTD/svg11.dtd">
<svg width="100%" height="100%" viewBox="0 0 225 41" version="1.1" xmlns="http://www.w3.org/2000/svg" xmlns:xlink="http://www.w3.org/1999/xlink" xml:space="preserve" xmlns:serif="http://www.serif.com/" style="fill-rule:evenodd;clip-rule:evenodd;stroke-linejoin:round;stroke-miterlimit:2;">
    <g>
        <path d="M67.895,13.515C65.279,13.515 63.39,14.241 62.228,15.691C61.063,17.143 60.482,19.128 60.482,21.647C60.482,22.871 60.626,23.981 60.914,24.976C61.203,25.971 61.635,26.827 62.21,27.548C62.786,28.267 63.505,28.826 64.369,29.221C65.233,29.617 66.239,29.814 67.391,29.814C68.013,29.814 68.548,29.803 68.992,29.778C69.435,29.755 69.826,29.706 70.163,29.635L70.163,20.964L75.776,20.964L75.776,33.306C75.103,33.57 74.024,33.851 72.536,34.151C71.05,34.45 69.213,34.601 67.033,34.601C65.161,34.601 63.462,34.314 61.94,33.736C60.416,33.162 59.116,32.322 58.035,31.218C56.956,30.115 56.124,28.758 55.534,27.152C54.946,25.546 54.654,23.71 54.654,21.647C54.654,19.56 54.977,17.713 55.624,16.105C56.273,14.499 57.16,13.139 58.288,12.022C59.416,10.907 60.74,10.061 62.262,9.485C63.786,8.91 65.412,8.621 67.138,8.621C68.314,8.621 69.376,8.7 70.322,8.856C71.271,9.012 72.086,9.191 72.771,9.395C73.454,9.6 74.017,9.81 74.462,10.025C74.904,10.242 75.223,10.41 75.415,10.528L73.796,15.026C73.027,14.619 72.145,14.264 71.15,13.965C70.156,13.666 69.069,13.515 67.895,13.515Z" style="fill:white;fill-rule:nonzero;"/>
        <path d="M125.968,24.526C125.968,21.072 124.697,19.343 122.155,19.343C121.601,19.343 121.058,19.415 120.516,19.56C119.977,19.705 119.539,19.885 119.204,20.1L119.204,29.852C119.468,29.899 119.805,29.942 120.212,29.978C120.62,30.013 121.063,30.031 121.542,30.031C123.006,30.031 124.109,29.528 124.853,28.52C125.597,27.513 125.968,26.181 125.968,24.526ZM131.437,24.67C131.437,26.181 131.217,27.548 130.772,28.771C130.328,29.996 129.686,31.039 128.847,31.903C128.007,32.765 126.975,33.43 125.753,33.9C124.528,34.366 123.137,34.601 121.579,34.601C120.931,34.601 120.253,34.57 119.547,34.511C118.837,34.45 118.143,34.373 117.46,34.276C116.775,34.181 116.123,34.067 115.497,33.936C114.875,33.803 114.323,33.665 113.842,33.522L113.842,9.516L119.204,8.654L119.204,15.638C119.805,15.374 120.427,15.17 121.076,15.027C121.723,14.883 122.418,14.812 123.162,14.812C124.505,14.812 125.694,15.045 126.725,15.512C127.755,15.98 128.619,16.645 129.315,17.51C130.009,18.374 130.539,19.41 130.897,20.622C131.258,21.833 131.437,23.183 131.437,24.67Z" style="fill:white;fill-rule:nonzero;"/>
        <path d="M142.807,30.39C143.334,30.39 143.838,30.379 144.318,30.354C144.797,30.331 145.18,30.295 145.469,30.247L145.469,26.181C145.252,26.132 144.93,26.084 144.497,26.036C144.065,25.989 143.669,25.964 143.311,25.964C142.807,25.964 142.332,25.994 141.889,26.055C141.445,26.115 141.054,26.229 140.72,26.396C140.383,26.564 140.12,26.792 139.93,27.079C139.736,27.368 139.639,27.728 139.639,28.158C139.639,28.999 139.923,29.58 140.485,29.904C141.05,30.229 141.823,30.39 142.807,30.39ZM142.375,14.702C143.96,14.702 145.277,14.882 146.333,15.242C147.389,15.6 148.233,16.118 148.87,16.789C149.504,17.461 149.954,18.277 150.22,19.236C150.483,20.195 150.614,21.264 150.614,22.438L150.614,33.594C149.847,33.76 148.78,33.957 147.412,34.187C146.046,34.413 144.39,34.528 142.447,34.528C141.224,34.528 140.113,34.42 139.118,34.203C138.123,33.988 137.266,33.635 136.547,33.142C135.826,32.652 135.274,32.009 134.89,31.216C134.507,30.426 134.315,29.454 134.315,28.303C134.315,27.201 134.537,26.265 134.982,25.496C135.425,24.729 136.018,24.117 136.762,23.662C137.504,23.207 138.358,22.877 139.317,22.673C140.276,22.468 141.272,22.366 142.303,22.366C142.997,22.366 143.615,22.396 144.157,22.456C144.696,22.517 145.134,22.594 145.469,22.69L145.469,22.187C145.469,21.276 145.193,20.543 144.641,19.991C144.091,19.44 143.131,19.164 141.764,19.164C140.851,19.164 139.951,19.229 139.064,19.361C138.176,19.494 137.409,19.679 136.762,19.919L136.079,15.6C136.389,15.505 136.78,15.403 137.246,15.296C137.716,15.188 138.225,15.091 138.777,15.007C139.329,14.925 139.91,14.853 140.523,14.792C141.133,14.733 141.751,14.702 142.375,14.702Z" style="fill:white;fill-rule:nonzero;"/>
        <path d="M163.028,34.492C161.47,34.467 160.204,34.3 159.233,33.988C158.261,33.676 157.492,33.239 156.931,32.674C156.365,32.111 155.981,31.428 155.778,30.623C155.574,29.82 155.472,28.915 155.472,27.908L155.472,9.516L160.834,8.652L160.834,26.828C160.834,27.309 160.87,27.739 160.941,28.123C161.015,28.508 161.151,28.831 161.355,29.094C161.56,29.36 161.854,29.575 162.237,29.743C162.619,29.91 163.137,30.018 163.785,30.066L163.028,34.492Z" style="fill:white;fill-rule:nonzero;"/>
        <path d="M178.248,19.956C177.768,19.836 177.206,19.71 176.557,19.58C175.909,19.447 175.215,19.381 174.471,19.381C174.134,19.381 173.732,19.411 173.266,19.47C172.798,19.531 172.443,19.596 172.205,19.667L172.205,34.133L166.843,34.133L166.843,16.215C167.802,15.879 168.935,15.56 170.242,15.261C171.551,14.96 173.006,14.811 174.616,14.811C174.903,14.811 175.251,14.829 175.659,14.865C176.066,14.901 176.473,14.949 176.88,15.008C177.289,15.069 177.696,15.141 178.105,15.223C178.511,15.309 178.861,15.41 179.148,15.53L178.248,19.956Z" style="fill:white;fill-rule:nonzero;"/>
        <path d="M187.388,34.133L182.026,34.133L182.026,15.206L187.388,15.206L187.388,34.133ZM187.89,9.738C187.89,10.72 187.573,11.495 186.938,12.06C186.302,12.621 185.551,12.904 184.689,12.904C183.824,12.904 183.073,12.621 182.44,12.06C181.802,11.495 181.487,10.72 181.487,9.738C181.487,8.755 181.802,7.981 182.44,7.417C183.073,6.854 183.824,6.57 184.689,6.57C185.551,6.57 186.302,6.854 186.938,7.417C187.573,7.981 187.89,8.755 187.89,9.738Z" style="fill:white;fill-rule:nonzero;"/>
        <path d="M197.857,30.282C198.841,30.282 199.537,30.187 199.944,29.995C200.352,29.803 200.557,29.431 200.557,28.878C200.557,28.448 200.291,28.07 199.764,27.745C199.237,27.421 198.432,27.057 197.355,26.648C196.514,26.336 195.752,26.014 195.069,25.677C194.385,25.341 193.804,24.941 193.325,24.472C192.845,24.004 192.472,23.447 192.208,22.799C191.945,22.15 191.812,21.371 191.812,20.46C191.812,18.685 192.472,17.282 193.791,16.251C195.111,15.218 196.923,14.704 199.225,14.704C200.376,14.704 201.48,14.806 202.534,15.008C203.59,15.213 204.431,15.435 205.055,15.673L204.119,19.849C203.495,19.632 202.817,19.44 202.084,19.271C201.353,19.105 200.532,19.02 199.619,19.02C197.941,19.02 197.102,19.488 197.102,20.422C197.102,20.639 197.138,20.833 197.21,21C197.282,21.168 197.427,21.329 197.642,21.485C197.857,21.641 198.151,21.81 198.524,21.991C198.895,22.174 199.37,22.373 199.944,22.59C201.12,23.025 202.091,23.454 202.859,23.877C203.628,24.302 204.234,24.757 204.676,25.248C205.121,25.739 205.433,26.284 205.61,26.883C205.791,27.48 205.883,28.174 205.883,28.964C205.883,30.831 205.18,32.243 203.776,33.201C202.375,34.158 200.388,34.636 197.821,34.636C196.141,34.636 194.745,34.493 193.632,34.204C192.515,33.918 191.74,33.677 191.31,33.486L192.208,29.131C193.119,29.491 194.056,29.773 195.016,29.977C195.975,30.182 196.923,30.282 197.857,30.282Z" style="fill:white;fill-rule:nonzero;"/>
        <path d="M208.975,24.67C208.975,23.301 209.197,22.012 209.64,20.8C210.085,19.59 210.726,18.534 211.565,17.635C212.404,16.735 213.424,16.021 214.624,15.494C215.823,14.965 217.191,14.702 218.725,14.702C219.733,14.702 220.658,14.793 221.497,14.972C222.336,15.152 223.151,15.41 223.944,15.745L222.829,20.028C222.323,19.836 221.773,19.667 221.172,19.524C220.574,19.381 219.901,19.309 219.159,19.309C217.574,19.309 216.393,19.8 215.613,20.784C214.835,21.767 214.444,23.063 214.444,24.67C214.444,26.372 214.81,27.691 215.542,28.627C216.273,29.561 217.549,30.031 219.374,30.031C220.021,30.031 220.717,29.972 221.461,29.852C222.205,29.732 222.888,29.54 223.51,29.274L224.267,33.665C223.643,33.93 222.863,34.156 221.929,34.348C220.993,34.54 219.961,34.636 218.835,34.636C217.107,34.636 215.619,34.379 214.373,33.862C213.123,33.347 212.1,32.645 211.296,31.757C210.492,30.87 209.905,29.821 209.534,28.609C209.161,27.397 208.975,26.085 208.975,24.67Z" style="fill:white;fill-rule:nonzero;"/>
        <path d="M104.235,24.651C104.235,22.996 103.905,21.695 103.245,20.747C102.586,19.8 101.646,19.327 100.422,19.327C99.198,19.327 98.249,19.8 97.579,20.747C96.907,21.695 96.573,22.996 96.573,24.651C96.573,26.307 96.907,27.62 97.579,28.591C98.249,29.563 99.198,30.049 100.422,30.049C101.646,30.049 102.586,29.563 103.245,28.591C103.905,27.62 104.235,26.307 104.235,24.651ZM109.706,24.651C109.706,26.139 109.489,27.5 109.055,28.735C108.625,29.972 108.001,31.026 107.186,31.902C106.37,32.777 105.393,33.455 104.255,33.935C103.115,34.414 101.836,34.654 100.422,34.654C99.031,34.654 97.765,34.414 96.625,33.935C95.485,33.455 94.508,32.777 93.692,31.902C92.877,31.026 92.242,29.972 91.787,28.735C91.331,27.5 91.104,26.139 91.104,24.651C91.104,23.163 91.337,21.81 91.803,20.585C92.272,19.363 92.92,18.319 93.746,17.455C94.574,16.591 95.558,15.921 96.699,15.44C97.837,14.96 99.077,14.72 100.422,14.72C101.79,14.72 103.043,14.96 104.183,15.44C105.32,15.921 106.298,16.591 107.114,17.455C107.93,18.319 108.566,19.363 109.021,20.585C109.477,21.81 109.706,23.163 109.706,24.651Z" style="fill:white;fill-rule:nonzero;"/>
        <path d="M88.188,34.478C86.628,34.453 85.365,34.287 84.393,33.974C83.421,33.662 82.652,33.225 82.089,32.66C81.525,32.097 81.141,31.414 80.937,30.609C80.734,29.806 80.632,28.901 80.632,27.894L80.632,9.502L85.992,8.638L85.992,26.814C85.992,27.295 86.03,27.725 86.101,28.109C86.173,28.494 86.311,28.817 86.514,29.08C86.718,29.346 87.014,29.561 87.397,29.729C87.779,29.898 88.297,30.004 88.945,30.052L88.188,34.478Z" style="fill:white;fill-rule:nonzero;"/>
        <path d="M19.911,6.64C21.677,6.712 25.257,6.857 28.2,7.867C28.2,5.658 26.211,4.373 24.97,3.784C21.884,2.317 18.148,2.103 15.239,2.081C11.052,2.069 6.541,2.556 1.885,3.59C1.257,3.729 0.628,3.879 0,4.037L0,8.833C6.871,7.131 13.551,6.384 19.911,6.64Z" style="fill:white;fill-rule:nonzero;"/>
        <path d="M24.196,14.092C25.542,12.966 26.524,11.909 27.184,10.875C25.715,10.151 24.001,9.815 22.497,9.579C19.705,9.147 16.655,9.049 12.9,9.274C8.508,9.538 4.192,10.181 0,11.176L0,25.415C1.539,24.954 3.124,24.451 4.8,23.878C11.243,21.67 18.587,18.781 24.196,14.092Z" style="fill:white;fill-rule:nonzero;"/>
        <path d="M23.626,0.224C25.993,0.73 28.905,1.686 30.459,3.912C31.578,5.517 31.749,7.325 30.967,9.291C32.087,10.153 32.763,11.22 32.979,12.465C33.434,15.096 31.522,17.605 30.043,19.263C26.762,22.941 22.554,25.675 18.526,28.159C17.927,28.528 17.348,28.613 16.937,28.392C16.666,28.245 16.507,27.986 16.498,27.678C16.484,27.208 16.82,26.726 17.419,26.358C19.165,25.28 21.451,23.826 23.635,22.14C25.137,20.981 29.707,17.453 29.871,14.411C29.914,13.626 29.668,12.933 29.123,12.302C27.211,14.626 24.538,16.616 22.591,17.899C16.607,21.841 9.401,24.979 0,27.735L0,41L40.775,41L40.775,0.224L23.626,0.224Z" style="fill:white;fill-rule:nonzero;"/>
    </g>
</svg>
